<?xml version="1.0" encoding="UTF-8"?>
<svg id="Layer_1" data-name="Layer 1" xmlns="http://www.w3.org/2000/svg" viewBox="0 0 697.58 222.32">
  <defs>
    <style>
      .cls-1 {
        fill: #fff;
      }
    </style>
  </defs>
  <g>
    <path class="cls-1" d="M131.36,152.41c-4.25,0-8.53-1.76-11.73-5.2l-15.87-17.05c-1.62-1.74-1.52-4.46.22-6.08,1.74-1.62,4.46-1.52,6.08.22l15.87,17.05c2.68,2.88,6.93,3.27,9.66.88,1.3-1.13,2.06-2.74,2.15-4.54.1-1.99-.65-4-2.06-5.52l-19.26-20.7s-1.64-1.7-4.11-2.35c-3.06-.81-6.31.35-9.64,3.45l-32.16,34.51c-2.99,3.21-7.18,5.1-11.48,5.18-4.13.09-8.02-1.45-10.91-4.32-5.9-5.85-5.92-15.37-.04-21.68l22.58-24.22c1.13-1.3,1.63-2.54,1.55-3.81-.15-2.25-2.09-4.42-2.82-5.06l-.34-.33-20.83-22.38c-2.99-3.21-4.58-7.52-4.36-11.82.21-4.14,2.02-7.89,5.08-10.57,6.25-5.47,15.75-4.82,21.63,1.49l32.39,34.25c2.02,2.27,4.08,3.41,6.32,3.49,3.91.14,7.45-3.02,7.76-3.31l18.7-19.52c2.65-2.84,2.73-7.1.15-9.66-1.22-1.21-2.88-1.86-4.68-1.82-1.99.04-3.95.93-5.36,2.45l-15.95,16.81c-1.64,1.72-4.36,1.8-6.08.16-1.72-1.64-1.8-4.36-.16-6.08l15.92-16.78c2.97-3.18,7.15-5.07,11.46-5.16,4.13-.09,8.02,1.45,10.91,4.32,5.9,5.85,5.92,15.37.04,21.68l-18.89,19.71c-.63.62-6.36,6.06-14.11,5.81-4.64-.15-8.82-2.28-12.43-6.32l-32.28-34.13c-2.71-2.91-6.95-3.3-9.68-.91-1.3,1.13-2.06,2.75-2.15,4.54-.1,1.99.65,4,2.06,5.52l20.68,22.22c1.11,1,5.17,5.03,5.59,10.74.27,3.61-1.01,7.14-3.7,10.2l-.09.09-22.62,24.27c-2.69,2.88-2.77,7.14-.19,9.7,1.22,1.21,2.87,1.85,4.68,1.82,1.99-.04,3.95-.93,5.36-2.45l32.36-34.72.1-.1c4.53-4.26,9.34-6.31,14.33-6.12,6.92.27,11.28,4.86,11.75,5.38l19.23,20.66c2.99,3.21,4.58,7.52,4.36,11.82-.21,4.14-2.02,7.89-5.08,10.57-2.84,2.49-6.35,3.71-9.89,3.71Z"/>
    <path class="cls-1" d="M95.07,222.32l-1.84-.68c-3.62-1.34-88.69-33.65-91.71-112.99L0,25.78l2.63-1.52c.97-.56,24.14-13.8,58.54-20.53,31.87-6.24,79.66-7.73,126.32,20.58l2.48,1.5v73.41c.14,2.39.96,22.33-9.45,46.76-9.96,23.39-32.56,55.49-83.62,75.61l-1.83.72ZM10.42,31.79l1.4,76.57c2.52,66.28,71.17,97.86,83.2,102.89,37.1-15.04,62.6-38.19,75.82-68.82,10.04-23.28,8.85-42.47,8.84-42.66v-.37s-.01-67.74-.01-67.74c-75.09-43.73-153.97-7.66-169.25.13Z"/>
  </g>
  <g>
    <g>
      <path class="cls-1" d="M243.12,167c-1.15-1.58-3.22-2.26-4.99-2.26-4.52,0-7.59,3.5-7.59,8.02,0,4.77,2.91,8.08,7.43,8.08,2.35,0,4.21-1.02,5.33-2.54l3.13,2.2c-1.92,2.42-4.77,3.84-8.49,3.84-6.85,0-11.71-4.74-11.71-11.58s5.14-11.46,11.89-11.46c2.85,0,6.23,1.05,7.96,3.35l-2.97,2.35Z"/>
      <path class="cls-1" d="M257.02,174.28l-8.24-12.42h4.77l5.51,9.23,5.58-9.23h4.52l-8.24,12.42v9.51h-3.9v-9.51Z"/>
      <path class="cls-1" d="M274.24,161.86h8.55c3.31,0,6.72,1.52,6.72,5.51,0,2.48-1.55,4.12-3.81,4.8v.06c2.76.37,4.74,2.23,4.74,5.17,0,4.77-4.15,6.38-8.3,6.38h-7.9v-21.93ZM278.15,170.78h3.47c2.6,0,4-1.08,4-2.97s-1.39-2.73-4.34-2.73h-3.13v5.7ZM278.15,180.51h3.5c2.01,0,4.89-.4,4.89-3.28,0-2.29-1.58-3.1-4.74-3.1h-3.66v6.38Z"/>
      <path class="cls-1" d="M297.53,161.86h14.53v3.41h-10.62v5.58h10.07v3.28h-10.07v6.19h11.18v3.47h-15.08v-21.93Z"/>
      <path class="cls-1" d="M319.67,161.86h7.62c4.12,0,8.08,1.64,8.08,6.29,0,3.16-1.95,5.24-5.02,5.92l5.85,9.73h-4.71l-5.08-9.29h-2.85v9.29h-3.9v-21.93ZM326.77,171.31c2.2,0,4.71-.53,4.71-3.19,0-2.38-2.35-2.97-4.37-2.97h-3.53v6.16h3.19Z"/>
      <path class="cls-1" d="M364.58,166.45c-.84-1.08-2.48-1.89-4.03-1.89-1.8,0-3.87.87-3.87,3,0,2.01,1.7,2.6,4.18,3.38,2.82.87,6.41,2.11,6.41,6.41,0,4.71-3.69,7-7.99,7-2.85,0-5.79-1.08-7.53-3.13l2.79-2.6c1.08,1.49,3.07,2.42,4.8,2.42,1.83,0,3.96-.9,3.96-3.25s-2.29-2.94-5.05-3.81c-2.66-.84-5.54-2.14-5.54-6.23,0-4.46,4.06-6.44,8.02-6.44,2.2,0,4.71.77,6.38,2.35l-2.54,2.79Z"/>
      <path class="cls-1" d="M374.43,161.86h14.53v3.41h-10.62v5.58h10.07v3.28h-10.07v6.19h11.18v3.47h-15.08v-21.93Z"/>
      <path class="cls-1" d="M412.4,167c-1.15-1.58-3.22-2.26-4.99-2.26-4.52,0-7.59,3.5-7.59,8.02,0,4.77,2.91,8.08,7.43,8.08,2.35,0,4.21-1.02,5.33-2.54l3.13,2.2c-1.92,2.42-4.77,3.84-8.49,3.84-6.85,0-11.71-4.74-11.71-11.58s5.14-11.46,11.89-11.46c2.85,0,6.23,1.05,7.96,3.35l-2.97,2.35Z"/>
      <path class="cls-1" d="M438.84,175.74c0,5.3-3.81,8.61-8.83,8.61s-8.83-3.31-8.83-8.61v-13.88h3.9v13.72c0,2.54,1.18,5.27,4.93,5.27s4.92-2.73,4.92-5.27v-13.72h3.9v13.88Z"/>
      <path class="cls-1" d="M446.74,161.86h7.62c4.12,0,8.08,1.64,8.08,6.29,0,3.16-1.95,5.24-5.02,5.92l5.85,9.73h-4.71l-5.08-9.29h-2.85v9.29h-3.9v-21.93ZM453.83,171.31c2.2,0,4.71-.53,4.71-3.19,0-2.38-2.35-2.97-4.37-2.97h-3.53v6.16h3.19Z"/>
      <path class="cls-1" d="M469.47,161.86h3.9v21.93h-3.9v-21.93Z"/>
      <path class="cls-1" d="M485.88,165.27h-6.72v-3.41h17.35v3.41h-6.72v18.52h-3.9v-18.52Z"/>
      <path class="cls-1" d="M507.22,174.28l-8.24-12.42h4.77l5.51,9.23,5.58-9.23h4.52l-8.24,12.42v9.51h-3.9v-9.51Z"/>
      <path class="cls-1" d="M545.87,166.45c-.84-1.08-2.48-1.89-4.03-1.89-1.8,0-3.87.87-3.87,3,0,2.01,1.7,2.6,4.18,3.38,2.82.87,6.41,2.11,6.41,6.41,0,4.71-3.69,7-7.99,7-2.85,0-5.79-1.08-7.53-3.13l2.79-2.6c1.08,1.49,3.07,2.42,4.8,2.42,1.83,0,3.96-.9,3.96-3.25s-2.29-2.94-5.05-3.81c-2.66-.84-5.54-2.14-5.54-6.23,0-4.46,4.06-6.44,8.02-6.44,2.2,0,4.71.77,6.38,2.35l-2.54,2.79Z"/>
      <path class="cls-1" d="M555.72,161.86h14.53v3.41h-10.62v5.58h10.07v3.28h-10.07v6.19h11.18v3.47h-15.08v-21.93Z"/>
      <path class="cls-1" d="M577.86,161.86h7.62c4.12,0,8.08,1.64,8.08,6.29,0,3.16-1.95,5.24-5.02,5.92l5.85,9.73h-4.71l-5.08-9.29h-2.85v9.29h-3.9v-21.93ZM584.95,171.31c2.2,0,4.71-.53,4.71-3.19,0-2.38-2.35-2.97-4.37-2.97h-3.53v6.16h3.19Z"/>
      <path class="cls-1" d="M597.49,161.86h4.37l6.04,16.88h.12l6.1-16.88h4.21l-8.8,21.93h-3.38l-8.67-21.93Z"/>
      <path class="cls-1" d="M623.69,161.86h3.9v21.93h-3.9v-21.93Z"/>
      <path class="cls-1" d="M651.51,167c-1.15-1.58-3.22-2.26-4.99-2.26-4.52,0-7.59,3.5-7.59,8.02,0,4.77,2.91,8.08,7.43,8.08,2.35,0,4.21-1.02,5.33-2.54l3.13,2.2c-1.92,2.42-4.77,3.84-8.49,3.84-6.85,0-11.71-4.74-11.71-11.58s5.14-11.46,11.89-11.46c2.85,0,6.23,1.05,7.96,3.35l-2.97,2.35Z"/>
      <path class="cls-1" d="M660.49,161.86h14.53v3.41h-10.62v5.58h10.07v3.28h-10.07v6.19h11.18v3.47h-15.08v-21.93Z"/>
      <path class="cls-1" d="M693.81,166.45c-.84-1.08-2.48-1.89-4.03-1.89-1.8,0-3.87.87-3.87,3,0,2.01,1.7,2.6,4.18,3.38,2.82.87,6.41,2.11,6.41,6.41,0,4.71-3.69,7-7.99,7-2.85,0-5.79-1.08-7.53-3.13l2.79-2.6c1.08,1.49,3.07,2.42,4.8,2.42,1.83,0,3.96-.9,3.96-3.25s-2.29-2.94-5.05-3.81c-2.66-.84-5.54-2.14-5.54-6.23,0-4.46,4.06-6.44,8.02-6.44,2.2,0,4.71.77,6.38,2.35l-2.54,2.79Z"/>
    </g>
    <g>
      <path class="cls-1" d="M285.2,130.41l-18.08-29.16-17.38,29.16h-23.8l28.93-43.63-26.6-38.96h24.03l15.4,25.66,15.17-25.66h23.21l-26.13,38.96,29.86,43.63h-24.61Z"/>
      <path class="cls-1" d="M357.53,95.41v35h-19.95v-35l-31.03-47.59h24.15l17.61,30.56,17.61-30.56h23.33l-31.73,47.59Z"/>
      <path class="cls-1" d="M425.31,99.26h-9.92v31.15h-19.95V47.82h30.33c18.08,0,32.31,6.53,32.31,25.43s-15.51,26.01-32.78,26.01ZM424.14,63.92h-8.75v19.48h8.4c7.47,0,14.35-2.22,14.35-10.03s-6.88-9.45-14-9.45Z"/>
      <path class="cls-1" d="M522.25,130.41v-34.53h-32.2v34.53h-19.95V47.82h19.95v31.26h32.2v-31.26h19.95v82.59h-19.95Z"/>
      <path class="cls-1" d="M559.23,130.41V47.82h55.53v16.92h-36.28v15.51h34.3v15.98h-34.3v17.15h38.38v17.03h-57.63Z"/>
      <path class="cls-1" d="M674.25,130.41l-17.85-32.78h-6.77v32.78h-19.6V47.82h31.5c15.87,0,31.61,6.07,31.61,24.96,0,11.08-6.53,19.01-17.15,22.28l21.58,35.35h-23.33ZM660.13,63.92h-10.62v19.25h9.45c6.42,0,14.47-1.63,14.47-10.03,0-7.7-7.35-9.22-13.3-9.22Z"/>
    </g>
  </g>
</svg>